<?xml version="1.0" encoding="UTF-8"?>
<svg width="248px" height="31px" viewBox="0 0 248 31" version="1.1" xmlns="http://www.w3.org/2000/svg" xmlns:xlink="http://www.w3.org/1999/xlink">
    <!-- Generator: Sketch 64 (93537) - https://sketch.com -->
    <title>logo</title>
    <desc>Created with Sketch.</desc>
    <g id="Page-1" stroke="none" stroke-width="1" fill="none" fill-rule="evenodd">
        <g id="logo" transform="translate(-1.000000, 0.000000)">
            <text id="STARFLEET-SHOWDOWN" fill="#C5C5C5" font-family="Trek-Classic-Credits, Trek" font-size="33" font-style="condensed" font-weight="normal">
                <tspan x="1.234375" y="27">STARFLEET   SHOWDOWN</tspan>
            </text>
            <path d="M119.468068,0 C118.747444,0.974190657 118.387132,1.46128599 118.387132,1.46128599 C117.530767,2.8322916 117.102584,3.51779441 117.102584,3.51779441 C116.442035,4.76545622 116.11176,5.38928712 116.11176,5.38928712 C115.398386,6.8900238 115.041699,7.64039215 115.041699,7.64039215 C114.595118,8.67765024 114.371828,9.19627929 114.371828,9.19627929 C113.984885,10.2778188 113.791414,10.8185885 113.791414,10.8185885 C113.429439,11.8408715 113.248452,12.3520129 113.248452,12.3520129 C112.691479,14.2727519 112.412993,15.2331214 112.412993,15.2331214 C111.916422,17.3307176 111.668137,18.3795157 111.668137,18.3795157 C111.441903,19.5007206 111.328786,20.061323 111.328786,20.061323 C111.010368,21.8879708 110.851159,22.8012946 110.851159,22.8012946 C110.557054,24.8701213 110.410002,25.9045347 110.410002,25.9045347 C110.212551,27.649812 110.113826,28.5224507 110.113826,28.5224507 C110.037942,29.5074836 110,30 110,30 C111.228152,28.4226163 111.842228,27.6339244 111.842228,27.6339244 C113.798037,25.4095492 114.775942,24.2973616 114.775942,24.2973616 C116.021811,23.0165827 116.644746,22.3761932 116.644746,22.3761932 C117.836592,21.376883 118.432515,20.8772278 118.432515,20.8772278 C119.510753,20.1111866 120.049872,19.7281659 120.049872,19.7281659 C120.963259,19.1843904 121.419952,18.9125027 121.419952,18.9125027 C121.903276,18.693028 122.144938,18.5832906 122.144938,18.5832906 C122.483798,18.5561314 122.653229,18.5425517 122.653229,18.5425517 C122.974318,18.6172128 123.134863,18.6545434 123.134863,18.6545434 C123.410923,18.8053148 123.548953,18.8807006 123.548953,18.8807006 C123.970567,19.2501416 124.181373,19.4348621 124.181373,19.4348621 C124.461468,19.7581968 124.601515,19.9198641 124.601515,19.9198641 C125.372729,21.0528237 125.758335,21.6193035 125.758335,21.6193035 C126.535273,22.9201029 126.923742,23.5705027 126.923742,23.5705027 C127.561995,24.8268061 127.881122,25.4549578 127.881122,25.4549578 C128.429699,26.5021456 128.703987,27.0257396 128.703987,27.0257396 C128.901329,27.4656551 129,27.6856128 129,27.6856128 C128.884975,26.3534675 128.827462,25.6873948 128.827462,25.6873948 C128.551129,23.9498466 128.412963,23.0810725 128.412963,23.0810725 C127.929694,20.7507441 127.688059,19.5855798 127.688059,19.5855798 C127.046372,17.1753302 126.725528,15.9702053 126.725528,15.9702053 C126.110988,14.0592888 125.803718,13.1038305 125.803718,13.1038305 C125.256177,11.58361 124.982406,10.8234997 124.982406,10.8234997 C124.194075,8.93657563 123.79991,7.99311357 123.79991,7.99311357 C122.962788,6.2569609 122.544228,5.38888457 122.544228,5.38888457 C121.759767,3.90473328 121.367537,3.16265764 121.367537,3.16265764 L120.508119,1.63881412 C119.814752,0.546271372 119.468068,0 119.468068,0 Z" id="Path" fill="#C5C5C5"></path>
            <g id="Group" stroke-width="1" transform="translate(0.000000, 1.000000)" fill="#FFFFFF">
                <text id="STARFLEET-SHOWDOWN" font-family="Trek-Classic-Credits, Trek" font-size="33" font-style="condensed" font-weight="normal">
                    <tspan x="0.234375" y="27">STARFLEET   SHOWDOWN</tspan>
                </text>
                <path d="M118.468068,0 C117.747444,0.974190657 117.387132,1.46128599 117.387132,1.46128599 C116.530767,2.8322916 116.102584,3.51779441 116.102584,3.51779441 C115.442035,4.76545622 115.11176,5.38928712 115.11176,5.38928712 C114.398386,6.8900238 114.041699,7.64039215 114.041699,7.64039215 C113.595118,8.67765024 113.371828,9.19627929 113.371828,9.19627929 C112.984885,10.2778188 112.791414,10.8185885 112.791414,10.8185885 C112.429439,11.8408715 112.248452,12.3520129 112.248452,12.3520129 C111.691479,14.2727519 111.412993,15.2331214 111.412993,15.2331214 C110.916422,17.3307176 110.668137,18.3795157 110.668137,18.3795157 C110.441903,19.5007206 110.328786,20.061323 110.328786,20.061323 C110.010368,21.8879708 109.851159,22.8012946 109.851159,22.8012946 C109.557054,24.8701213 109.410002,25.9045347 109.410002,25.9045347 C109.212551,27.649812 109.113826,28.5224507 109.113826,28.5224507 C109.037942,29.5074836 109,30 109,30 C110.228152,28.4226163 110.842228,27.6339244 110.842228,27.6339244 C112.798037,25.4095492 113.775942,24.2973616 113.775942,24.2973616 C115.021811,23.0165827 115.644746,22.3761932 115.644746,22.3761932 C116.836592,21.376883 117.432515,20.8772278 117.432515,20.8772278 C118.510753,20.1111866 119.049872,19.7281659 119.049872,19.7281659 C119.963259,19.1843904 120.419952,18.9125027 120.419952,18.9125027 C120.903276,18.693028 121.144938,18.5832906 121.144938,18.5832906 C121.483798,18.5561314 121.653229,18.5425517 121.653229,18.5425517 C121.974318,18.6172128 122.134863,18.6545434 122.134863,18.6545434 C122.410923,18.8053148 122.548953,18.8807006 122.548953,18.8807006 C122.970567,19.2501416 123.181373,19.4348621 123.181373,19.4348621 C123.461468,19.7581968 123.601515,19.9198641 123.601515,19.9198641 C124.372729,21.0528237 124.758335,21.6193035 124.758335,21.6193035 C125.535273,22.9201029 125.923742,23.5705027 125.923742,23.5705027 C126.561995,24.8268061 126.881122,25.4549578 126.881122,25.4549578 C127.429699,26.5021456 127.703987,27.0257396 127.703987,27.0257396 C127.901329,27.4656551 128,27.6856128 128,27.6856128 C127.884975,26.3534675 127.827462,25.6873948 127.827462,25.6873948 C127.551129,23.9498466 127.412963,23.0810725 127.412963,23.0810725 C126.929694,20.7507441 126.688059,19.5855798 126.688059,19.5855798 C126.046372,17.1753302 125.725528,15.9702053 125.725528,15.9702053 C125.110988,14.0592888 124.803718,13.1038305 124.803718,13.1038305 C124.256177,11.58361 123.982406,10.8234997 123.982406,10.8234997 C123.194075,8.93657563 122.79991,7.99311357 122.79991,7.99311357 C121.962788,6.2569609 121.544228,5.38888457 121.544228,5.38888457 C120.759767,3.90473328 120.367537,3.16265764 120.367537,3.16265764 L119.508119,1.63881412 C118.814752,0.546271372 118.468068,0 118.468068,0 Z" id="Path"></path>
            </g>
        </g>
    </g>
</svg>